<?xml version="1.0" encoding="UTF-8"?>
<svg width="148px" height="173px" viewBox="0 0 148 173" version="1.1" xmlns="http://www.w3.org/2000/svg" xmlns:xlink="http://www.w3.org/1999/xlink">
    <title>bird_outline_nogaps_blue_notext copy</title>
    <g id="logo" stroke="none" stroke-width="1" fill="none" fill-rule="evenodd">
        <g id="bird_outline_nogaps_blue_notext-copy" transform="translate(2.000000, 2.000000)">
            <g id="Group-3" stroke="#4A9CE5" stroke-linecap="round" stroke-width="4">
                <polyline id="Fill-66" stroke-linejoin="bevel" points="143.741784 20.9644532 78.3745829 10.1435827 106.055702 35.672176 143.741784 20.9644532"></polyline>
                <polyline id="Fill-68" stroke-linejoin="bevel" points="106.055702 35.672176 78.7079781 70.6695819 78.3745829 10.1435827 106.055702 35.672176"></polyline>
                <polygon id="Fill-70" stroke-linejoin="round" points="78.7079781 70.6695819 19.3431336 41.082926 78.3745829 10.1435827"></polygon>
                <polyline id="Fill-71" stroke-linejoin="bevel" points="71.6613558 13.6735368 58.363417 -2.30926389e-14 34.4545688 27.4093892 38.4913211 31.0803401 71.6613558 13.6735368"></polyline>
                <polyline id="Fill-72" stroke-linejoin="bevel" points="38.4913211 31.0803401 24.0112881 17.9210637 19.3431336 41.082926 38.4913211 31.0803401"></polyline>
                <polyline id="Fill-74" stroke-linejoin="bevel" points="24.0112881 17.9210637 10.1707284 17.4137272 19.3431336 41.082926 24.0112881 17.9210637"></polyline>
                <polygon id="Fill-75" stroke-linejoin="round" points="13.9516915 27.1915996 -8.8817842e-15 25.1918377 10.1707284 17.4137272"></polygon>
                <polyline id="Fill-77" stroke-linejoin="round" points="58.363417 9.59232693e-14 38.7700817 3.35244935 50.5270763 9.01686761 58.363417 9.59232693e-14"></polyline>
                <polyline id="Fill-79" stroke-linejoin="bevel" points="78.7079781 70.6695819 19.3431336 41.082926 30.6835393 68.3015919 78.7079781 70.6695819"></polyline>
                <path d="M78.7079781,70.6695819 C78.7079781,71.1769183 92.4237474,117.795225 92.4237474,117.795225 L30.7946711,68.3607602 L78.7079781,70.6695819" id="Fill-81" stroke-linejoin="bevel"></path>
                <polyline id="Fill-82" stroke-linejoin="round" points="78.6241637 70.6695819 119.000379 111.07522 97.3843212 134.746307 78.6241637 70.6695819"></polyline>
                <polyline id="Fill-83" stroke-linejoin="bevel" points="122.564045 96.3674972 115.17161 107.243759 87.7698724 79.8274462 122.564045 96.3674972"></polyline>
            </g>
            <path d="M11.24,169.96 L13.44,168.04 L7.24,160.98 L13.84,153.48 L10.98,152.02 L10.94,152.02 L4.4,159.64 L4.4,153.1 L4.48,152.2 L1,152.16 L1,169.76 L4.38,169.8 L4.48,168.98 L4.4,162.34 L10.94,169.96 L11.24,169.96 Z M25.41,170.22 C26.6633333,170.22 27.8433333,169.98 28.95,169.5 C30.0566667,169.02 31.0233333,168.366667 31.85,167.54 C32.6633333,166.726667 33.31,165.76 33.79,164.64 C34.0433333,164.08 34.2266667,163.51 34.34,162.93 C34.4533333,162.35 34.51,161.74 34.51,161.1 C34.51,160.46 34.4533333,159.85 34.34,159.27 C34.2266667,158.69 34.0433333,158.12 33.79,157.56 C33.31,156.453333 32.6633333,155.486667 31.85,154.66 C31.0233333,153.846667 30.0566667,153.2 28.95,152.72 C28.39,152.466667 27.82,152.283333 27.24,152.17 C26.66,152.056667 26.05,152 25.41,152 C24.77,152 24.16,152.056667 23.58,152.17 C23,152.283333 22.43,152.466667 21.87,152.72 C20.75,153.2 19.7833333,153.846667 18.97,154.66 C18.1433333,155.486667 17.49,156.453333 17.01,157.56 C16.53,158.666667 16.29,159.846667 16.29,161.1 C16.29,162.366667 16.53,163.546667 17.01,164.64 C17.49,165.773333 18.1433333,166.74 18.97,167.54 C19.77,168.366667 20.7366667,169.02 21.87,169.5 C22.9633333,169.98 24.1433333,170.22 25.41,170.22 Z M25.41,167.18 C24.57,167.18 23.7833333,167.02 23.05,166.7 C22.69,166.54 22.3466667,166.35 22.02,166.13 C21.6933333,165.91 21.3966667,165.66 21.13,165.38 L20.925625,165.174375 C20.726875,164.963125 20.545,164.735 20.38,164.49 C20.16,164.163333 19.97,163.82 19.81,163.46 C19.49,162.726667 19.33,161.94 19.33,161.1 C19.33,160.286667 19.49,159.506667 19.81,158.76 C20.13,158.026667 20.57,157.38 21.13,156.82 C21.6633333,156.286667 22.3033333,155.853333 23.05,155.52 C23.7833333,155.2 24.57,155.04 25.41,155.04 C26.2233333,155.04 27.0033333,155.2 27.75,155.52 C28.47,155.826667 29.1166667,156.26 29.69,156.82 C30.25,157.393333 30.6833333,158.04 30.99,158.76 C31.31,159.506667 31.47,160.286667 31.47,161.1 C31.47,161.94 31.31,162.726667 30.99,163.46 C30.6566667,164.206667 30.2233333,164.846667 29.69,165.38 C29.13,165.94 28.4833333,166.38 27.75,166.7 C27.0033333,167.02 26.2233333,167.18 25.41,167.18 Z M45.88,169.96 L45.88,155.1 L51.34,155.1 L50.82,152.08 L37.44,152.08 L36.52,154.92 L36.52,155.1 L42.16,155.1 L42.16,169.96 L45.88,169.96 Z M56.17,169.96 L57.53,166.9 L64.65,166.9 L65.97,169.96 L69.33,169.96 L62.81,152.18 L59.43,152.18 L52.83,169.96 L56.17,169.96 Z M63.99,164.88 L58.15,164.88 L59.39,161.52 L60.99,157.04 L63.99,164.88 Z M71.7800001,169.96 L75.4400001,169.92 L75.4600001,152.16 L71.7800001,152.18 L71.7800001,169.96 Z M86.9700001,170.16 C87.7300001,170.16 88.4433334,170.073333 89.1100001,169.9 C89.3766667,169.833333 89.6300001,169.756667 89.8700001,169.67 C90.1100001,169.583333 90.3433334,169.486667 90.5700001,169.38 L90.5700001,169.38 L89.7900001,166.44 C89.6033334,166.546667 89.4033334,166.64 89.1900001,166.72 C88.8166667,166.866667 88.4433334,166.973333 88.0700001,167.04 C87.6966667,167.106667 87.3233334,167.14 86.9500001,167.14 L86.9500001,167.14 L86.9700001,167.2 C86.1300001,167.2 85.3566667,167.04 84.6500001,166.72 C84.2766667,166.546667 83.9333334,166.356667 83.6200001,166.15 C83.3066667,165.943333 83.0100001,165.7 82.7300001,165.42 C82.1966667,164.873333 81.7700001,164.233333 81.4500001,163.5 C81.1166667,162.806667 80.9500001,162.033333 80.9500001,161.18 C80.9500001,160.353333 81.1166667,159.586667 81.4500001,158.88 C81.7700001,158.146667 82.1966667,157.506667 82.7300001,156.96 C83.3033334,156.413333 83.9433334,155.986667 84.6500001,155.68 C85.3566667,155.36 86.1300001,155.2 86.9700001,155.2 C87.3566667,155.2 87.7366667,155.233333 88.1100001,155.3 C88.4833334,155.366667 88.8566667,155.473333 89.2300001,155.62 L89.2300001,155.62 L89.6300001,155.82 L90.4100001,152.86 C90.0233334,152.7 89.5966667,152.56 89.1300001,152.44 C88.4633334,152.266667 87.7433334,152.18 86.9700001,152.18 C85.7033334,152.18 84.5433334,152.413333 83.4900001,152.88 C82.4233334,153.333333 81.4633334,153.973333 80.6100001,154.8 C80.2100001,155.213333 79.8500001,155.656667 79.5300001,156.13 C79.2100001,156.603333 78.9300001,157.12 78.6900001,157.68 C78.2233334,158.733333 77.9900001,159.9 77.9900001,161.18 C77.9900001,162.446667 78.2233334,163.606667 78.6900001,164.66 C78.9300001,165.22 79.2100001,165.736667 79.5300001,166.21 C79.8500001,166.683333 80.2100001,167.126667 80.6100001,167.54 C81.4633334,168.366667 82.4233334,169.006667 83.4900001,169.46 C84.5433334,169.926667 85.7033334,170.16 86.9700001,170.16 Z M102.88,170.22 C104.133333,170.22 105.313333,169.98 106.42,169.5 C107.526667,169.02 108.493333,168.366667 109.32,167.54 C110.133333,166.726667 110.78,165.76 111.26,164.64 C111.513333,164.08 111.696667,163.51 111.81,162.93 C111.923333,162.35 111.98,161.74 111.98,161.1 C111.98,160.46 111.923333,159.85 111.81,159.27 C111.696667,158.69 111.513333,158.12 111.26,157.56 C110.78,156.453333 110.133333,155.486667 109.32,154.66 C108.493333,153.846667 107.526667,153.2 106.42,152.72 C105.86,152.466667 105.29,152.283333 104.71,152.17 C104.13,152.056667 103.52,152 102.88,152 C102.24,152 101.63,152.056667 101.05,152.17 C100.47,152.283333 99.9000001,152.466667 99.3400001,152.72 C98.2200001,153.2 97.2533334,153.846667 96.4400001,154.66 C95.6133334,155.486667 94.9600001,156.453333 94.4800001,157.56 C94.0000001,158.666667 93.7600001,159.846667 93.7600001,161.1 C93.7600001,162.366667 94.0000001,163.546667 94.4800001,164.64 C94.9600001,165.773333 95.6133334,166.74 96.4400001,167.54 C97.2400001,168.366667 98.2066667,169.02 99.3400001,169.5 C100.433333,169.98 101.613333,170.22 102.88,170.22 Z M102.88,167.18 C102.04,167.18 101.253333,167.02 100.52,166.7 C100.16,166.54 99.8166667,166.35 99.4900001,166.13 C99.1633334,165.91 98.8666667,165.66 98.6000001,165.38 L98.3956251,165.174375 C98.1968751,164.963125 98.0150001,164.735 97.8500001,164.49 C97.6300001,164.163333 97.4400001,163.82 97.2800001,163.46 C96.9600001,162.726667 96.8000001,161.94 96.8000001,161.1 C96.8000001,160.286667 96.9600001,159.506667 97.2800001,158.76 C97.6000001,158.026667 98.0400001,157.38 98.6000001,156.82 C99.1333334,156.286667 99.7733334,155.853333 100.52,155.52 C101.253333,155.2 102.04,155.04 102.88,155.04 C103.693333,155.04 104.473333,155.2 105.22,155.52 C105.94,155.826667 106.586667,156.26 107.16,156.82 C107.72,157.393333 108.153333,158.04 108.46,158.76 C108.78,159.506667 108.94,160.286667 108.94,161.1 C108.94,161.94 108.78,162.726667 108.46,163.46 C108.126667,164.206667 107.693333,164.846667 107.16,165.38 C106.6,165.94 105.953333,166.38 105.22,166.7 C104.473333,167.02 103.693333,167.18 102.88,167.18 Z M120.55,169.96 C121.776667,169.96 122.936667,169.733333 124.03,169.28 C125.11,168.826667 126.056667,168.186667 126.87,167.36 C127.656667,166.573333 128.29,165.626667 128.77,164.52 C129.236667,163.413333 129.47,162.253333 129.47,161.04 L129.47,161.04 L129.49,161.04 C129.49,159.826667 129.256667,158.673333 128.79,157.58 C128.336667,156.513333 127.696667,155.56 126.87,154.72 C126.083333,153.92 125.136667,153.286667 124.03,152.82 C122.936667,152.366667 121.776667,152.14 120.55,152.14 L120.55,152.14 L115.63,152.14 L115.35,152.4 L115.35,169.7 L115.61,169.96 L120.55,169.96 Z M120.57,166.92 L118.39,166.92 L118.39,155.12 L120.57,155.12 C121.356667,155.12 122.123333,155.273333 122.87,155.58 C123.576667,155.873333 124.196667,156.286667 124.73,156.82 C125.263333,157.326667 125.683333,157.953333 125.99,158.7 C126.296667,159.433333 126.45,160.2 126.45,161 L126.45,161 L126.45,161.04 C126.45,161.826667 126.296667,162.593333 125.99,163.34 C125.683333,164.086667 125.263333,164.706667 124.73,165.2 C124.236667,165.733333 123.616667,166.153333 122.87,166.46 C122.123333,166.766667 121.356667,166.92 120.57,166.92 L120.57,166.92 Z M143.66,169.96 L143.66,166.96 L135.58,166.96 L135.58,162.56 L139.86,162.56 L139.86,159.56 L135.58,159.56 L135.58,155.16 L143.66,155.16 L143.66,152.16 L132.56,152.16 L132.56,169.96 L143.66,169.96 Z" id="kotaiCODE" fill="#4A9CE5" fill-rule="nonzero"></path>
        </g>
    </g>
</svg>