<svg id="visual" viewBox="0 0 960 540" width="960" height="540" xmlns="http://www.w3.org/2000/svg" xmlns:xlink="http://www.w3.org/1999/xlink" version="1.1"><rect width="960" height="540" fill="#ffffff"></rect><g><g transform="translate(38 116)"><path d="M40.1 -12.2C46.1 5.3 40.9 27.2 26.2 38.4C11.6 49.6 -12.5 50 -28.3 38.7C-44 27.3 -51.3 4.1 -45.2 -13.6C-39.1 -31.3 -19.5 -43.5 -1.2 -43.1C17.1 -42.7 34.1 -29.7 40.1 -12.2Z" fill="none" stroke="#538BDB" stroke-width="20"></path></g><g transform="translate(125 441)"><path d="M37.3 -11.9C41.8 1.8 34.5 19.6 21.1 29.4C7.7 39.2 -11.8 41.1 -24.9 32.1C-38 23.1 -44.7 3.2 -39.5 -11.4C-34.2 -26 -17.1 -35.3 -0.4 -35.2C16.4 -35.1 32.8 -25.5 37.3 -11.9Z" fill="none" stroke="#538BDB" stroke-width="20"></path></g><g transform="translate(863 169)"><path d="M25.2 -7.5C28.9 3.1 25.5 16.8 16.7 23.3C7.8 29.8 -6.5 29.2 -15.2 22.5C-23.9 15.8 -27 3 -23.5 -7.3C-20.1 -17.6 -10 -25.4 0.4 -25.5C10.8 -25.7 21.6 -18.1 25.2 -7.5Z" fill="none" stroke="#538BDB" stroke-width="20"></path></g><g transform="translate(827 15)"><path d="M37.6 -13.4C42.4 2.5 35.6 21 22.4 30.5C9.2 40.1 -10.4 40.6 -24.4 31C-38.5 21.4 -47.1 1.7 -42.1 -14.5C-37.1 -30.7 -18.5 -43.4 -1.1 -43C16.4 -42.7 32.8 -29.3 37.6 -13.4Z" fill="none" stroke="#538BDB" stroke-width="20"></path></g><g transform="translate(773 292)"><path d="M30.2 -11C34 2 28.5 16.9 17.5 25.2C6.4 33.4 -10.2 35.2 -21.8 27.4C-33.4 19.6 -39.9 2.2 -35.5 -11.6C-31 -25.4 -15.5 -35.8 -1.2 -35.4C13.2 -35 26.4 -23.9 30.2 -11Z" fill="none" stroke="#538BDB" stroke-width="20"></path></g><g transform="translate(343 537)"><path d="M30.6 -9.2C34.8 2.9 29.9 18.7 18.9 26.9C7.9 35.1 -9.3 35.8 -19 28.2C-28.8 20.6 -31.2 4.9 -26.8 -7.6C-22.4 -20.1 -11.2 -29.2 1 -29.6C13.2 -29.9 26.4 -21.4 30.6 -9.2Z" fill="none" stroke="#538BDB" stroke-width="20"></path></g></g></svg>