<svg id="visual" viewBox="0 0 960 540" width="960" height="540" xmlns="http://www.w3.org/2000/svg" xmlns:xlink="http://www.w3.org/1999/xlink" version="1.1"><rect width="960" height="540" fill="#ffffff"></rect><g><g transform="translate(739 408)"><path d="M72.8 -20.9C82.1 4.9 68.9 40.8 43.8 58.6C18.7 76.5 -18.3 76.3 -39.8 59.6C-61.2 42.9 -67.1 9.6 -57.9 -16.1C-48.7 -41.8 -24.3 -59.9 3.7 -61.1C31.8 -62.3 63.5 -46.7 72.8 -20.9Z" fill="none" stroke="#538BDB" stroke-width="20"></path></g><g transform="translate(103 87)"><path d="M56.3 -20C62.8 1.5 50.7 27.3 31.7 40.3C12.8 53.3 -13 53.3 -29.6 41.2C-46.2 29 -53.5 4.6 -47 -16.9C-40.6 -38.4 -20.3 -57 2.3 -57.8C24.9 -58.6 49.9 -41.4 56.3 -20Z" fill="none" stroke="#538BDB" stroke-width="20"></path></g><g transform="translate(900 238)"><path d="M60.1 -18.7C67.9 4.3 57.2 34.2 36.2 49.4C15.1 64.6 -16.3 65.2 -37.1 50.3C-57.9 35.3 -68 5 -60 -18.3C-52.1 -41.6 -26 -57.8 0.1 -57.8C26.2 -57.8 52.4 -41.7 60.1 -18.7Z" fill="none" stroke="#538BDB" stroke-width="20"></path></g><g transform="translate(477 501)"><path d="M39.8 -12.9C45.2 3.9 39 24.5 24 36.1C9 47.8 -14.8 50.5 -29.2 40.1C-43.5 29.7 -48.3 6.2 -41.9 -11.9C-35.4 -30 -17.7 -42.7 -0.3 -42.7C17.2 -42.6 34.3 -29.6 39.8 -12.9Z" stroke="#538BDB" fill="none" stroke-width="20"></path></g><g transform="translate(13 493)"><path d="M65.1 -19.3C73.1 3.7 60.7 35.1 39.4 49.5C18.1 63.8 -12.1 61 -31.5 46.3C-50.8 31.5 -59.3 4.7 -52.3 -16.9C-45.2 -38.5 -22.6 -54.9 2.9 -55.9C28.5 -56.8 57 -42.3 65.1 -19.3Z" stroke="#538BDB" fill="none" stroke-width="20"></path></g><g transform="translate(949 530)"><path d="M42.5 -14.3C47.6 1.6 38.8 21.5 24.1 32C9.3 42.4 -11.5 43.4 -25.5 33.6C-39.5 23.8 -46.7 3.1 -41.4 -13.3C-36 -29.8 -18 -42 0.4 -42.1C18.8 -42.2 37.5 -30.3 42.5 -14.3Z" stroke="#538BDB" fill="none" stroke-width="20"></path></g><g transform="translate(795 52)"><path d="M48.1 -15.1C55.8 8 51 35.8 34 48.5C17 61.2 -12.1 59 -32.7 44.2C-53.4 29.4 -65.5 2.1 -58.7 -19.9C-51.8 -41.9 -25.9 -58.5 -2.8 -57.6C20.2 -56.7 40.4 -38.2 48.1 -15.1Z" stroke="#538BDB" fill="none" stroke-width="20"></path></g></g></svg>