<svg id="visual" viewBox="0 0 960 540" width="960" height="540" xmlns="http://www.w3.org/2000/svg" xmlns:xlink="http://www.w3.org/1999/xlink" version="1.1"><rect x="0" y="0" width="960" height="540" fill="#fff"></rect><path d="M0 165L22.8 163.3C45.7 161.7 91.3 158.3 137 154C182.7 149.7 228.3 144.3 274 151.5C319.7 158.7 365.3 178.3 411.2 182.7C457 187 503 176 548.8 179.3C594.7 182.7 640.3 200.3 686 209.3C731.7 218.3 777.3 218.7 823 213.5C868.7 208.3 914.3 197.7 937.2 192.3L960 187L960 0L937.2 0C914.3 0 868.7 0 823 0C777.3 0 731.7 0 686 0C640.3 0 594.7 0 548.8 0C503 0 457 0 411.2 0C365.3 0 319.7 0 274 0C228.3 0 182.7 0 137 0C91.3 0 45.7 0 22.8 0L0 0Z" fill="#538bdb"></path><path d="M0 167L22.8 163.7C45.7 160.3 91.3 153.7 137 144.7C182.7 135.7 228.3 124.3 274 125.2C319.7 126 365.3 139 411.2 146.3C457 153.7 503 155.3 548.8 148.3C594.7 141.3 640.3 125.7 686 121C731.7 116.3 777.3 122.7 823 131.2C868.7 139.7 914.3 150.3 937.2 155.7L960 161L960 0L937.2 0C914.3 0 868.7 0 823 0C777.3 0 731.7 0 686 0C640.3 0 594.7 0 548.8 0C503 0 457 0 411.2 0C365.3 0 319.7 0 274 0C228.3 0 182.7 0 137 0C91.3 0 45.7 0 22.8 0L0 0Z" fill="#4a86dd"></path><path d="M0 117L22.8 118.7C45.7 120.3 91.3 123.7 137 128.2C182.7 132.7 228.3 138.3 274 134C319.7 129.7 365.3 115.3 411.2 115C457 114.7 503 128.3 548.8 132.7C594.7 137 640.3 132 686 128.2C731.7 124.3 777.3 121.7 823 120.7C868.7 119.7 914.3 120.3 937.2 120.7L960 121L960 0L937.2 0C914.3 0 868.7 0 823 0C777.3 0 731.7 0 686 0C640.3 0 594.7 0 548.8 0C503 0 457 0 411.2 0C365.3 0 319.7 0 274 0C228.3 0 182.7 0 137 0C91.3 0 45.7 0 22.8 0L0 0Z" fill="#4081de"></path><path d="M0 52L22.8 55.7C45.7 59.3 91.3 66.7 137 73.8C182.7 81 228.3 88 274 88.5C319.7 89 365.3 83 411.2 75.5C457 68 503 59 548.8 56.3C594.7 53.7 640.3 57.3 686 63.7C731.7 70 777.3 79 823 86.2C868.7 93.3 914.3 98.7 937.2 101.3L960 104L960 0L937.2 0C914.3 0 868.7 0 823 0C777.3 0 731.7 0 686 0C640.3 0 594.7 0 548.8 0C503 0 457 0 411.2 0C365.3 0 319.7 0 274 0C228.3 0 182.7 0 137 0C91.3 0 45.7 0 22.8 0L0 0Z" fill="#367ce0"></path><path d="M0 52L22.8 54C45.7 56 91.3 60 137 58.8C182.7 57.7 228.3 51.3 274 48.8C319.7 46.3 365.3 47.7 411.2 44.5C457 41.3 503 33.7 548.8 36.5C594.7 39.3 640.3 52.7 686 53.5C731.7 54.3 777.3 42.7 823 37C868.7 31.3 914.3 31.7 937.2 31.8L960 32L960 0L937.2 0C914.3 0 868.7 0 823 0C777.3 0 731.7 0 686 0C640.3 0 594.7 0 548.8 0C503 0 457 0 411.2 0C365.3 0 319.7 0 274 0C228.3 0 182.7 0 137 0C91.3 0 45.7 0 22.8 0L0 0Z" fill="#2b77e1"></path></svg>